<svg xmlns="http://www.w3.org/2000/svg" viewBox="0 0 702.11 89.35"><defs><style>.cls-1{fill:#fff;}</style></defs><title>Asset 1</title><g id="Layer_2" data-name="Layer 2"><g id="Layer_1-2" data-name="Layer 1"><path class="cls-1" d="M42.15.75h4Q66,.75,80.62,19.64a43.58,43.58,0,0,1,8,24.94v.63q0,25.44-24.57,39.47a43,43,0,0,1-19.58,4.67h-.63Q21,89.35,6.3,68.09,0,57.19,0,46.89v-4Q0,23.07,19.27,8.36,30.75.74,42.15.75ZM6,44.89v1Q6,67.77,28.56,80.06a40.88,40.88,0,0,0,15.9,3.31q23.25,0,35.54-23.88a49.16,49.16,0,0,0,2.62-14.91Q82.62,23,61,10.35a41.3,41.3,0,0,0-15.9-3.62h-1Q20.63,6.73,9,29.93A36.11,36.11,0,0,0,6,44.89Z"/><path class="cls-1" d="M118.66.62A17.41,17.41,0,0,1,121.9,6.3q-15,12.84-15,30.55v4.62l40.84,39h.37q40.47-38.41,40.47-39l.31-1.81v-.38q0-18.76-12.78-31.17L179,2.74h.68q15.66,14.66,15.66,34.8v3.93q0,2-10.67,11.66L147.78,89.35l-47.2-46.82V35.79Q100.58,16,118.66.62Z"/><path class="cls-1" d="M253,.06h4q20.09,0,34.8,19.08,8,12,8,24.38v3.37l-.69.69H216.56q0,11.78,11.66,25.06,12.09,10.67,27.12,10.67,10.78,0,22.39-7H278L281.72,80v.31a41.26,41.26,0,0,1-26.38,9h-.68q-23,0-37.79-21.38-6.36-11-6.36-21.45v-4q0-20,19.39-34.8Q241.5.06,253,.06ZM216.56,41.53h76.88v-.69q0-13.28-14.4-26.75-11.48-8-23.07-8h-1q-24.08,0-35.79,24.07Q216.56,37.85,216.56,41.53Z"/><path class="cls-1" d="M357.91.75h4.37q15,0,28.06,10.6v.31q-2.31,4-3.62,4.74Q374.2,7.3,361.16,7.3H360.1q-25.82,0-38.66,25.56a39.19,39.19,0,0,0-3.31,16.4v1.06q0,19.89,18.27,33.92c-1.87,3-3.22,4.7-4,5.11q-20.76-16.2-20.77-37.91V47.08q0-21.82,21.14-38Q345.38.74,357.91.75Z"/><path class="cls-1" d="M446.83.75h4.37q15,0,28.06,10.6v.31q-2.31,4-3.62,4.74Q463.1,7.3,450.07,7.3H449q-25.81,0-38.65,25.56a39.19,39.19,0,0,0-3.31,16.4v1.06q0,19.89,18.27,33.92c-1.87,3-3.22,4.7-4.05,5.11Q400.5,73.15,400.5,51.44V47.08q0-21.82,21.14-38Q434.3.74,446.83.75Z"/><path class="cls-1" d="M494,.62h1.25c2.24,0,3.74,1.65,4.49,4.93v.87q-1.12,4.94-4.49,4.93H494q-4.55-.69-4.55-4.55V5.18C489.88,2.14,491.39.62,494,.62Zm-2.06,22.7h5.37l.81.81V88.54l-.81.81h-5.37l-.87-.81V24.13Z"/><path class="cls-1" d="M554.77,0h4q21.38,0,36.79,21.76V.69l.68-.69h4.68l.68.69V44.83q0,25.7-24.75,39.85a43.87,43.87,0,0,1-19.77,4.67h-.68q-22.95,0-37.79-21.38-6.36-11-6.36-21.45v-4q0-20,19.39-34.86Q543.23,0,554.77,0ZM518.29,44.52v1q0,22.14,22.76,34.48a41.64,41.64,0,0,0,16,3.31q23.45,0,35.79-24.07a49.05,49.05,0,0,0,2.69-15.09q0-21.7-21.7-34.42a41.65,41.65,0,0,0-16.09-3.68h-1q-23.7,0-35.48,23.38A36.85,36.85,0,0,0,518.29,44.52Z"/><path class="cls-1" d="M655.28.06h4q20.09,0,34.8,19.08,8,12,8,24.38v3.37l-.69.69H618.87q0,11.78,11.66,25.06,12.09,10.67,27.12,10.67,10.79,0,22.39-7h.31L684,80v.31a41.26,41.26,0,0,1-26.38,9H657q-23,0-37.78-21.38-6.36-11-6.36-21.45v-4q0-20,19.39-34.8Q643.81.06,655.28.06ZM618.87,41.53h76.88v-.69q0-13.28-14.4-26.75-11.48-8-23.08-8h-1q-24.07,0-35.79,24.07Q618.87,37.85,618.87,41.53Z"/></g></g></svg>